<svg width="246" height="246" viewBox="0 0 246 246" fill="none" xmlns="http://www.w3.org/2000/svg">
<path fill-rule="evenodd" clip-rule="evenodd" d="M123 243C56.7258 243 3 189.274 3 123C3 56.7258 56.7258 3 123 3C189.274 3 243 56.7258 243 123C243 189.274 189.274 243 123 243Z" fill="url(#paint0_linear_0_1)" stroke="#A2E9E6" stroke-width="5"/>
<g filter="url(#filter0_d_0_1)">
<path fill-rule="evenodd" clip-rule="evenodd" d="M145 112C128.432 112 115 98.5682 115 82.0002C115 65.4313 128.432 51.9998 145 51.9998H145.415C147.795 37.8122 160.135 27.0006 175 27.0006C189.865 27.0006 202.204 37.8122 204.585 51.9998H205C221.569 51.9998 234.999 65.4313 234.999 82.0002C234.999 98.5683 221.569 112 205 112H145Z" fill="url(#paint1_linear_0_1)"/>
</g>
<path fill-rule="evenodd" clip-rule="evenodd" d="M20.0411 59.0806L58.1199 21.0019L71.9484 14.4439L183.659 126.154L116.209 193.604L8.95591 86.3505L20.0411 59.0806Z" fill="url(#paint2_linear_0_1)"/>
<path fill-rule="evenodd" clip-rule="evenodd" d="M131.837 157.981L25.6812 51.8251L39.8235 37.6828L145.98 143.839L131.837 157.981Z" fill="url(#paint3_linear_0_1)"/>
<g filter="url(#filter1_d_0_1)">
<path fill-rule="evenodd" clip-rule="evenodd" d="M98 158C98 130.386 120.386 108 148 108C175.614 108 198 130.386 198 158C198 185.614 175.614 208 148 208C120.386 208 98 185.614 98 158Z" fill="#FFFAB8"/>
</g>
<g filter="url(#filter2_d_0_1)">
<path fill-rule="evenodd" clip-rule="evenodd" d="M59.1783 225L59.1045 224.817C33.5585 213.912 17.6305 179.944 14.9813 174.619C20.2843 168.787 28.1983 165 36.9962 165H37.4111C39.7921 150.812 52.1323 140.001 66.9978 140.001C81.8633 140.001 94.2029 150.812 96.5837 165H96.9986C113.568 165 126.999 178.431 126.999 195C126.999 211.568 113.568 225 96.9986 225H59.1783Z" fill="url(#paint4_linear_0_1)"/>
</g>
<path fill-rule="evenodd" clip-rule="evenodd" d="M155 187C155 181.477 159.477 177 165 177C170.523 177 175 181.477 175 187C175 192.523 170.523 197 165 197C159.477 197 155 192.523 155 187Z" fill="#FFFDE9"/>
<path fill-rule="evenodd" clip-rule="evenodd" d="M131 177C131 171.477 135.477 167 141 167C146.523 167 151 171.477 151 177C151 182.523 146.523 187 141 187C135.477 187 131 182.523 131 177Z" fill="#FFFDE9"/>
<path fill-rule="evenodd" clip-rule="evenodd" d="M166 164C166 158.477 170.477 154 176 154C181.523 154 186 158.477 186 164C186 169.523 181.523 174 176 174C170.477 174 166 169.523 166 164Z" fill="#FFFDE9"/>
<path fill-rule="evenodd" clip-rule="evenodd" d="M123 243C56.7258 243 3 189.274 3 123V123C3 56.7258 56.7258 3 123 3V3C189.274 3 243 56.7258 243 123V123C243 189.274 189.274 243 123 243V243Z" stroke="#8965AE" stroke-width="5"/>
<defs>
<filter id="filter0_d_0_1" x="106" y="24.0005" width="131.999" height="96.9992" filterUnits="userSpaceOnUse" color-interpolation-filters="sRGB">
<feFlood flood-opacity="0" result="BackgroundImageFix"/>
<feColorMatrix in="SourceAlpha" type="matrix" values="0 0 0 0 0 0 0 0 0 0 0 0 0 0 0 0 0 0 127 0" result="hardAlpha"/>
<feOffset dx="-3" dy="3"/>
<feGaussianBlur stdDeviation="3"/>
<feColorMatrix type="matrix" values="0 0 0 0 0.603922 0 0 0 0 0.396078 0 0 0 0 0.682353 0 0 0 0.43 0"/>
<feBlend mode="normal" in2="BackgroundImageFix" result="effect1_dropShadow_0_1"/>
<feBlend mode="normal" in="SourceGraphic" in2="effect1_dropShadow_0_1" result="shape"/>
</filter>
<filter id="filter1_d_0_1" x="95" y="105" width="112" height="112" filterUnits="userSpaceOnUse" color-interpolation-filters="sRGB">
<feFlood flood-opacity="0" result="BackgroundImageFix"/>
<feColorMatrix in="SourceAlpha" type="matrix" values="0 0 0 0 0 0 0 0 0 0 0 0 0 0 0 0 0 0 127 0" result="hardAlpha"/>
<feOffset dx="3" dy="3"/>
<feGaussianBlur stdDeviation="3"/>
<feColorMatrix type="matrix" values="0 0 0 0 1 0 0 0 0 0.992157 0 0 0 0 0.913725 0 0 0 0.48 0"/>
<feBlend mode="normal" in2="BackgroundImageFix" result="effect1_dropShadow_0_1"/>
<feBlend mode="normal" in="SourceGraphic" in2="effect1_dropShadow_0_1" result="shape"/>
</filter>
<filter id="filter2_d_0_1" x="8.98132" y="137.001" width="124.018" height="96.9992" filterUnits="userSpaceOnUse" color-interpolation-filters="sRGB">
<feFlood flood-opacity="0" result="BackgroundImageFix"/>
<feColorMatrix in="SourceAlpha" type="matrix" values="0 0 0 0 0 0 0 0 0 0 0 0 0 0 0 0 0 0 127 0" result="hardAlpha"/>
<feOffset dy="3"/>
<feGaussianBlur stdDeviation="3"/>
<feColorMatrix type="matrix" values="0 0 0 0 0.603922 0 0 0 0 0.396078 0 0 0 0 0.682353 0 0 0 0.33 0"/>
<feBlend mode="normal" in2="BackgroundImageFix" result="effect1_dropShadow_0_1"/>
<feBlend mode="normal" in="SourceGraphic" in2="effect1_dropShadow_0_1" result="shape"/>
</filter>
<linearGradient id="paint0_linear_0_1" x1="-50.39" y1="130.155" x2="118.94" y2="296.195" gradientUnits="userSpaceOnUse">
<stop stop-color="#673B77"/>
<stop offset="1" stop-color="#3B3B77"/>
</linearGradient>
<linearGradient id="paint1_linear_0_1" x1="101.116" y1="54.441" x2="126.814" y2="109.902" gradientUnits="userSpaceOnUse">
<stop stop-color="#656CAE"/>
<stop offset="1" stop-color="#8965AE"/>
</linearGradient>
<linearGradient id="paint2_linear_0_1" x1="0.866936" y1="78.2618" x2="116.21" y2="193.605" gradientUnits="userSpaceOnUse">
<stop stop-color="white"/>
<stop offset="1" stop-color="#FFF271"/>
</linearGradient>
<linearGradient id="paint3_linear_0_1" x1="25.677" y1="51.8174" x2="131.835" y2="157.975" gradientUnits="userSpaceOnUse">
<stop stop-color="white"/>
<stop offset="1" stop-color="#FFEC2E"/>
</linearGradient>
<linearGradient id="paint4_linear_0_1" x1="2.02266" y1="167.445" x2="28.8595" y2="221.498" gradientUnits="userSpaceOnUse">
<stop stop-color="#9A65AE"/>
<stop offset="1" stop-color="#656CAE"/>
</linearGradient>
</defs>
</svg>
